<?xml version="1.0" encoding="UTF-8"?>
<!-- Generator: visioncortex VTracer 0.6.3 -->
<svg version="1.1" xmlns="http://www.w3.org/2000/svg" width="225" height="225">
<path d="M0 0 C3.23 2.57 5.28 4.38 6.47 8.39 C3.19 19.87 -9.99 28.98 -19.4 35.45 C-20.39 35.78 -21.38 36.11 -22.4 36.45 C-18.91 39.7 -18.91 39.7 -14.4 40.45 C-13.74 38.47 -13.08 36.49 -12.4 34.45 C3.91 35.77 3.91 35.77 8.6 40.45 C8.72 43.08 8.72 43.08 8.6 45.45 C5.6 46.45 4.43 46.46 1.41 46.02 C-0.48 45.74 -0.48 45.74 -2.4 45.45 C-2.4 46.44 -2.4 47.43 -2.4 48.45 C-3.06 48.45 -3.72 48.45 -4.4 48.45 C-4.73 49.44 -5.06 50.43 -5.4 51.45 C3.38 50.31 3.38 50.31 10.6 45.45 C14.36 43.53 17.39 43.08 21.6 43.45 C23.6 45.45 23.6 45.45 23.96 47.85 C23.49 51.22 22.42 52 19.79 54.08 C17.26 56.11 14.85 58.11 12.6 60.45 C13.55 61.07 14.5 61.69 15.47 62.33 C19.71 65.78 20.01 70.26 20.6 75.45 C23.52 75.68 23.52 75.68 25.6 74.45 C27.08 74.95 27.08 74.95 28.6 75.45 C29.57 75.27 30.54 75.08 31.54 74.89 C34.8 74.42 35.9 74.69 38.6 76.45 C37.61 79.31 36.61 80.45 34.16 82.27 C29.14 83.94 24.76 83.22 19.6 82.45 C19.6 83.11 19.6 83.77 19.6 84.45 C21.25 84.12 22.9 83.79 24.6 83.45 C24.6 84.11 24.6 84.77 24.6 85.45 C25.36 85.29 26.12 85.12 26.91 84.95 C40.07 83.17 40.07 83.17 45.6 86.45 C45.47 88.78 45.47 88.78 44.6 91.45 C37.66 95.6 29.6 97.25 21.6 97.45 C21.1 98.94 21.1 98.94 20.6 100.45 C18.09 101.4 18.09 101.4 15.04 102.14 C14.02 102.39 13.01 102.64 11.97 102.9 C11.19 103.08 10.4 103.27 9.6 103.45 C10.2 103.58 10.8 103.7 11.42 103.83 C13.6 104.45 13.6 104.45 16.41 106.39 C19.79 108.58 22.71 109.5 26.6 110.45 C28.08 110.95 28.08 110.95 29.6 111.45 C29.6 112.11 29.6 112.77 29.6 113.45 C30.26 113.78 30.92 114.11 31.6 114.45 C30.11 114.95 30.11 114.95 28.6 115.45 C28.91 116.44 29.22 117.43 29.54 118.45 C29.92 121.13 29.72 122.24 28.39 124.63 C24.26 129.74 21.09 131.63 14.6 132.45 C11.1 132.58 11.1 132.58 8.6 132.45 C8.6 133.11 8.6 133.77 8.6 134.45 C9.87 134.79 9.87 134.79 11.16 135.14 C15.5 136.8 20.44 139.13 22.6 143.45 C23.13 148.3 23.12 152.29 21.1 156.77 C14.96 163.36 7.66 166.35 -1.34 166.82 C-16.68 167.17 -32.01 165.61 -44.4 155.45 C-44.4 154.79 -44.4 154.13 -44.4 153.45 C-45.06 153.45 -45.72 153.45 -46.4 153.45 C-50.25 148.86 -52.29 145.62 -52.4 139.45 C-51.74 137.45 -51.07 135.45 -50.4 133.45 C-50.7 129.69 -50.7 129.69 -51.4 126.45 C-52.39 126.12 -53.38 125.79 -54.4 125.45 C-56.4 122.45 -56.4 122.45 -56.28 119.58 C-55.26 115.95 -54.06 114.11 -51.4 111.45 C-48.84 110.2 -48.84 110.2 -46.4 109.45 C-44.92 108.96 -44.92 108.96 -43.4 108.45 C-43.4 107.46 -43.4 106.47 -43.4 105.45 C-44.12 105.33 -44.83 105.21 -45.57 105.08 C-48.45 104.44 -50.99 103.52 -53.71 102.39 C-54.6 102.03 -55.48 101.67 -56.39 101.29 C-57.39 100.88 -57.39 100.88 -58.4 100.45 C-58.07 99.13 -57.74 97.81 -57.4 96.45 C-55.15 95.81 -52.9 95.16 -50.65 94.52 C-48.77 93.98 -48.77 93.98 -46.86 93.43 C-44.38 92.73 -41.91 92.05 -39.4 91.45 C-39.07 89.47 -38.74 87.49 -38.4 85.45 C-39.58 84.9 -39.58 84.9 -40.78 84.33 C-43.77 82.82 -46.69 81.19 -49.59 79.52 C-50.43 79.03 -51.27 78.55 -52.13 78.05 C-54.57 76.34 -55.96 75.06 -57.4 72.45 C-57.58 69.76 -57.58 69.76 -57.28 66.89 C-57.19 65.94 -57.11 64.99 -57.02 64.01 C-56.34 61.21 -55.7 60.15 -53.4 58.45 C-52.74 58.45 -52.08 58.45 -51.4 58.45 C-51.4 57.79 -51.4 57.13 -51.4 56.45 C-48.43 55.79 -45.46 55.13 -42.4 54.45 C-42.9 53.96 -42.9 53.96 -43.4 53.45 C-45.08 53.74 -46.75 54.07 -48.4 54.45 C-48.9 53.59 -48.9 53.59 -49.4 52.7 C-51.48 50.37 -52.6 49.86 -55.4 48.7 C-58.52 47.22 -60.07 46.08 -61.46 42.89 C-63.62 35.36 -62.05 27.13 -58.95 20.07 C-51.6 7.68 -40.73 -0.3 -26.89 -3.86 C-17.57 -5.7 -8.17 -5.26 0 0 Z M-31.4 42.45 C-35.18 45.93 -35.18 45.93 -37.4 50.45 C-39.38 50.45 -41.36 50.45 -43.4 50.45 C-43.4 50.78 -43.4 51.11 -43.4 51.45 C-41.63 51.53 -39.86 51.59 -38.09 51.64 C-37.1 51.68 -36.12 51.71 -35.1 51.75 C-32.38 51.68 -32.38 51.68 -30.55 50.07 C-29.21 48.51 -29.21 48.51 -29.4 46.45 C-28.74 46.12 -28.08 45.79 -27.4 45.45 C-28.72 44.46 -30.04 43.47 -31.4 42.45 Z M18.6 84.45 C18.27 85.11 17.94 85.77 17.6 86.45 C18.26 86.45 18.92 86.45 19.6 86.45 C19.27 85.79 18.94 85.13 18.6 84.45 Z M22.6 89.45 C24.58 90.11 26.56 90.77 28.6 91.45 C28.6 91.78 28.6 92.11 28.6 92.45 C34.89 91.93 34.89 91.93 40.6 89.45 C40.27 88.79 39.94 88.13 39.6 87.45 C37.51 87.4 35.43 87.36 33.35 87.33 C32.19 87.3 31.03 87.28 29.83 87.26 C26.77 87.44 25.16 87.84 22.6 89.45 Z M24.6 92.45 C28.6 93.45 28.6 93.45 28.6 93.45 Z " fill="#87AB30" transform="translate(124.40234375,31.546875)"/>
<path d="M0 0 C3.23 2.57 5.28 4.38 6.47 8.39 C3.19 19.87 -9.99 28.98 -19.4 35.45 C-20.39 35.78 -21.38 36.11 -22.4 36.45 C-18.91 39.7 -18.91 39.7 -14.4 40.45 C-13.74 38.47 -13.08 36.49 -12.4 34.45 C3.91 35.77 3.91 35.77 8.6 40.45 C8.72 43.08 8.72 43.08 8.6 45.45 C5.6 46.45 4.43 46.46 1.41 46.02 C-0.48 45.74 -0.48 45.74 -2.4 45.45 C-2.4 46.44 -2.4 47.43 -2.4 48.45 C-3.06 48.45 -3.72 48.45 -4.4 48.45 C-4.73 49.44 -5.06 50.43 -5.4 51.45 C3.38 50.31 3.38 50.31 10.6 45.45 C14.36 43.53 17.39 43.08 21.6 43.45 C23.6 45.45 23.6 45.45 23.96 47.85 C23.49 51.22 22.42 52 19.79 54.08 C17.26 56.11 14.85 58.11 12.6 60.45 C13.59 61.03 14.58 61.61 15.6 62.2 C17.98 64.17 18.55 65.21 19.17 68.28 C19.35 73.15 19.3 76.38 16.6 80.52 C13.06 82.8 9.63 84.27 5.6 85.45 C4.73 85.71 4.73 85.71 3.84 85.98 C-12.81 89.5 -35.65 87.96 -50.43 79.26 C-53.09 77.53 -55.14 75.85 -56.9 73.2 C-57.63 69.23 -57.49 65.36 -56.4 61.45 C-54.98 59.68 -54.98 59.68 -53.4 58.45 C-52.74 58.45 -52.08 58.45 -51.4 58.45 C-51.4 57.79 -51.4 57.13 -51.4 56.45 C-48.43 55.79 -45.46 55.13 -42.4 54.45 C-42.9 53.96 -42.9 53.96 -43.4 53.45 C-45.08 53.74 -46.75 54.07 -48.4 54.45 C-48.9 53.59 -48.9 53.59 -49.4 52.7 C-51.48 50.37 -52.6 49.86 -55.4 48.7 C-58.52 47.22 -60.07 46.08 -61.46 42.89 C-63.62 35.36 -62.05 27.13 -58.95 20.07 C-51.6 7.68 -40.73 -0.3 -26.89 -3.86 C-17.57 -5.7 -8.17 -5.26 0 0 Z M-31.4 42.45 C-35.18 45.93 -35.18 45.93 -37.4 50.45 C-39.38 50.45 -41.36 50.45 -43.4 50.45 C-43.4 50.78 -43.4 51.11 -43.4 51.45 C-41.63 51.53 -39.86 51.59 -38.09 51.64 C-37.1 51.68 -36.12 51.71 -35.1 51.75 C-32.38 51.68 -32.38 51.68 -30.55 50.07 C-29.21 48.51 -29.21 48.51 -29.4 46.45 C-28.74 46.12 -28.08 45.79 -27.4 45.45 C-28.72 44.46 -30.04 43.47 -31.4 42.45 Z " fill="#F09537" transform="translate(124.40234375,31.546875)"/>
<path d="M0 0 C0.33 0 0.66 0 1 0 C1.5 3.96 1.5 3.96 2 8 C4.93 8.22 4.93 8.22 7 7 C7.99 7.33 8.98 7.66 10 8 C10.97 7.81 11.94 7.63 12.94 7.44 C16.21 6.97 17.3 7.23 20 9 C19.02 11.85 18.01 12.99 15.56 14.81 C10.54 16.49 6.16 15.76 1 15 C1 15.66 1 16.32 1 17 C2.65 16.67 4.3 16.34 6 16 C6 16.66 6 17.32 6 18 C7.14 17.75 7.14 17.75 8.31 17.5 C21.47 15.72 21.47 15.72 27 19 C26.87 21.33 26.87 21.33 26 24 C19.06 28.14 11.01 29.8 3 30 C2.5 31.49 2.5 31.49 2 33 C-0.5 33.95 -0.5 33.95 -3.56 34.69 C-4.57 34.94 -5.59 35.19 -6.63 35.45 C-7.41 35.63 -8.19 35.81 -9 36 C-9 36.66 -9 37.32 -9 38 C-10.11 38 -11.23 38 -12.38 38 C-18.58 38.82 -22.8 42.57 -27 47 C-29.64 50.86 -31.9 54.83 -34 59 C-37.25 58.41 -38.94 57.45 -41.31 55.16 C-41.91 54.59 -42.51 54.02 -43.13 53.44 C-43.75 52.84 -44.37 52.24 -45 51.62 C-52.53 44.3 -52.53 44.3 -62 40 C-62 39.34 -62 38.68 -62 38 C-63.07 37.82 -63.07 37.82 -64.17 37.63 C-67.05 36.99 -69.59 36.06 -72.31 34.94 C-73.64 34.39 -73.64 34.39 -74.99 33.84 C-75.65 33.56 -76.32 33.29 -77 33 C-76.67 31.68 -76.34 30.36 -76 29 C-73.75 28.35 -71.5 27.71 -69.25 27.06 C-68 26.7 -66.74 26.34 -65.45 25.97 C-62.97 25.27 -60.5 24.6 -58 24 C-57.67 21.36 -57.34 18.72 -57 16 C-56.22 16.14 -55.44 16.28 -54.64 16.43 C-46.47 17.8 -38.58 18.34 -30.31 18.31 C-28.59 18.34 -28.59 18.34 -26.84 18.36 C-17.83 18.37 -10.3 17.51 -3 12 C-2.34 12 -1.68 12 -1 12 C-0.67 8.04 -0.34 4.08 0 0 Z M0 17 C-0.33 17.66 -0.66 18.32 -1 19 C-0.34 19 0.32 19 1 19 C0.67 18.34 0.34 17.68 0 17 Z M4 22 C5.98 22.66 7.96 23.32 10 24 C10 24.33 10 24.66 10 25 C16.29 24.48 16.29 24.48 22 22 C21.67 21.34 21.34 20.68 21 20 C18.92 19.95 16.83 19.91 14.75 19.88 C13.59 19.85 12.43 19.83 11.23 19.8 C8.17 19.99 6.56 20.39 4 22 Z M6 25 C10 26 10 26 10 26 Z " fill="#ECB41E" transform="translate(143,99)"/>
<path d="M0 0 C0 0.66 0 1.32 0 2 C0.53 1.84 1.06 1.67 1.61 1.5 C4.54 0.89 7.26 0.9 10.25 0.94 C11.87 0.95 11.87 0.95 13.52 0.96 C14.34 0.98 15.16 0.99 16 1 C16 3.62 15.69 5.51 15 8 C19.19 8.08 22.91 7.82 27 7 C27.66 7.33 28.32 7.66 29 8 C29 7.34 29 6.68 29 6 C30.42 6.23 31.84 6.49 33.25 6.75 C34.43 6.96 34.43 6.96 35.64 7.17 C38.69 8.24 40.05 9.43 42 12 C43.08 17.41 43.04 22.41 40 27.06 C36.46 29.35 33.03 30.81 29 32 C28.42 32.17 27.84 32.35 27.24 32.53 C10.6 36.05 -12.25 34.5 -27.03 25.8 C-29.68 24.08 -31.74 22.39 -33.5 19.75 C-34.24 15.68 -34.17 11.98 -33 8 C-30.56 5.44 -30.56 5.44 -28 4 C-27.34 4 -26.68 4 -26 4 C-26 5.32 -26 6.64 -26 8 C-24.68 8 -23.36 8 -22 8 C-22 8.66 -22 9.32 -22 10 C-19.03 10 -16.06 10 -13 10 C-13 9.34 -13 8.68 -13 8 C-11.79 7.29 -11.79 7.29 -10.56 6.56 C-7.71 5.2 -7.71 5.2 -7 2 C-9.97 1.5 -9.97 1.5 -13 1 C-13 0.67 -13 0.34 -13 0 C-8.34 -0.84 -4.63 -1.02 0 0 Z " fill="#932714" transform="translate(101,85)"/>
<path d="M0 0 C0.66 0 1.32 0 2 0 C2 0.66 2 1.32 2 2 C3.32 1.67 4.64 1.34 6 1 C6 1.99 6 2.98 6 4 C6.63 4.06 7.26 4.12 7.91 4.18 C12.57 4.64 17.21 5.15 21.86 5.75 C25.36 6.16 28.87 6.43 32.39 6.72 C34.97 7 37.46 7.45 40 8 C40 7.34 40 6.68 40 6 C40.89 5.86 41.77 5.71 42.69 5.56 C46.3 4.95 49.87 4.26 53.44 3.44 C60.34 2.26 63.47 3.56 69.14 7.49 C71.39 9.32 71.92 10.3 72.24 13.17 C72.41 18.99 72.14 22.55 68 27 C57.19 35.42 44.1 35.15 31 34 C21.84 32.48 12.22 28.92 5 23 C5 22.34 5 21.68 5 21 C4.34 21 3.68 21 3 21 C-0.82 16.44 -3 13.14 -3 7 C-2.22 4.48 -1.21 2.37 0 0 Z " fill="#FAB455" transform="translate(75,164)"/>
<path d="M0 0 C0.33 0 0.66 0 1 0 C1.5 3.96 1.5 3.96 2 8 C4.93 8.22 4.93 8.22 7 7 C7.99 7.33 8.98 7.66 10 8 C10.97 7.81 11.94 7.63 12.94 7.44 C16.21 6.97 17.3 7.23 20 9 C19.02 11.85 18.01 12.99 15.56 14.81 C10.54 16.49 6.16 15.76 1 15 C1 15.66 1 16.32 1 17 C2.65 16.67 4.3 16.34 6 16 C6 16.66 6 17.32 6 18 C7.14 17.75 7.14 17.75 8.31 17.5 C21.47 15.72 21.47 15.72 27 19 C26.87 21.33 26.87 21.33 26 24 C15.6 30.07 0.53 33.07 -11.35 30.49 C-11.9 30.33 -12.44 30.17 -13 30 C-13.33 28.35 -13.66 26.7 -14 25 C-14.91 25.63 -14.91 25.63 -15.84 26.28 C-21.94 30.27 -26.7 31.97 -34 32 C-34.99 30.02 -35.98 28.04 -37 26 C-37.55 26.07 -38.1 26.14 -38.66 26.22 C-46.46 27.13 -54.16 27.09 -62 27 C-62 26.34 -62 25.68 -62 25 C-60.68 24.67 -59.36 24.34 -58 24 C-57.67 21.36 -57.34 18.72 -57 16 C-56.22 16.14 -55.44 16.28 -54.64 16.43 C-46.47 17.8 -38.58 18.34 -30.31 18.31 C-28.59 18.34 -28.59 18.34 -26.84 18.36 C-17.83 18.37 -10.3 17.51 -3 12 C-2.34 12 -1.68 12 -1 12 C-0.67 8.04 -0.34 4.08 0 0 Z M0 17 C-0.33 17.66 -0.66 18.32 -1 19 C-0.34 19 0.32 19 1 19 C0.67 18.34 0.34 17.68 0 17 Z M4 22 C5.98 22.66 7.96 23.32 10 24 C10 24.33 10 24.66 10 25 C16.29 24.48 16.29 24.48 22 22 C21.67 21.34 21.34 20.68 21 20 C18.92 19.95 16.83 19.91 14.75 19.88 C13.59 19.85 12.43 19.83 11.23 19.8 C8.17 19.99 6.56 20.39 4 22 Z M6 25 C10 26 10 26 10 26 Z " fill="#D98665" transform="translate(143,99)"/>
<path d="M0 0 C0 0.66 0 1.32 0 2 C0.99 2 1.98 2 3 2 C3 2.99 3 3.98 3 5 C3.99 5.33 4.98 5.66 6 6 C5.42 8.39 4.78 10.67 4 13 C1.94 13.69 1.94 13.69 0 14 C0 14.66 0 15.32 0 16 C0.66 16 1.32 16 2 16 C2 16.99 2 17.98 2 19 C2.66 19 3.32 19 4 19 C4 19.66 4 20.32 4 21 C3.01 21 2.02 21 1 21 C1 20.34 1 19.68 1 19 C0.34 19 -0.32 19 -1 19 C-1.33 20.98 -1.66 22.96 -2 25 C-8.15 25.1 -8.15 25.1 -10 25 C-10.33 24.67 -10.66 24.34 -11 24 C-11 24.66 -11 25.32 -11 26 C-11.99 26 -12.98 26 -14 26 C-14.33 25.34 -14.66 24.68 -15 24 C-15.66 25.32 -16.32 26.64 -17 28 C-17.58 27.93 -18.16 27.86 -18.76 27.78 C-23.2 27.25 -27.52 26.89 -32 27 C-31.67 25.02 -31.34 23.04 -31 21 C-31.76 21.06 -32.53 21.12 -33.31 21.19 C-36 21 -36 21 -37.81 19.5 C-38.2 19 -38.6 18.51 -39 18 C-38.67 17.67 -38.34 17.34 -38 17 C-38.05 16.23 -38.11 15.46 -38.16 14.66 C-38 12 -38 12 -36.5 10.12 C-27.07 2.41 -12.55 -6.28 0 0 Z " fill="#F9BC62" transform="translate(112,29)"/>
<path d="M0 0 C0 0.66 0 1.32 0 2 C0.53 1.84 1.06 1.67 1.61 1.5 C4.54 0.89 7.26 0.9 10.25 0.94 C11.87 0.95 11.87 0.95 13.52 0.96 C14.34 0.98 15.16 0.99 16 1 C16 4 16 4 15.38 6.06 C15.19 7.02 15.19 7.02 15 8 C16.97 10.41 16.97 10.41 20.7 10.2 C22.17 10.18 23.65 10.16 25.12 10.12 C26.26 10.11 26.26 10.11 27.41 10.1 C29.27 10.07 31.14 10.04 33 10 C33 10.99 33 11.98 33 13 C32.01 13.33 31.02 13.66 30 14 C29.67 14.66 29.34 15.32 29 16 C29.66 16 30.32 16 31 16 C31.66 17.65 32.32 19.3 33 21 C32 22 32 22 30.14 22.11 C28.96 22.11 28.96 22.11 27.75 22.1 C26.89 22.09 26.04 22.09 25.16 22.09 C24.26 22.08 23.36 22.07 22.44 22.06 C21.54 22.06 20.63 22.05 19.71 22.05 C17.47 22.04 15.24 22.02 13 22 C13 22.66 13 23.32 13 24 C8.76 26.12 3.88 25.25 -0.5 24 C-1.33 23.67 -2.15 23.34 -3 23 C-2.34 22.67 -1.68 22.34 -1 22 C-1 21.34 -1 20.68 -1 20 C-5.57 18.45 -10.41 19.02 -15.16 19.21 C-18.33 19.28 -20.61 19.2 -23.45 17.72 C-25.81 15.1 -25.74 12.42 -26 9 C-21.71 9.33 -17.42 9.66 -13 10 C-13 9.34 -13 8.68 -13 8 C-11.79 7.29 -11.79 7.29 -10.56 6.56 C-7.71 5.2 -7.71 5.2 -7 2 C-9.97 1.5 -9.97 1.5 -13 1 C-13 0.67 -13 0.34 -13 0 C-8.34 -0.84 -4.63 -1.02 0 0 Z " fill="#691409" transform="translate(101,85)"/>
<path d="M0 0 C16.32 1.32 16.32 1.32 21 6 C21.12 8.62 21.12 8.62 21 11 C18 12 16.83 12.01 13.81 11.56 C12.55 11.38 11.3 11.19 10 11 C10 11.99 10 12.98 10 14 C9.34 14 8.68 14 8 14 C7.67 14.99 7.34 15.98 7 17 C15.78 15.86 15.78 15.86 23 11 C26.76 9.07 29.79 8.63 34 9 C36 11 36 11 36.36 13.4 C35.9 16.75 34.86 17.54 32.25 19.62 C31.55 20.19 30.86 20.76 30.14 21.35 C29.43 21.9 28.73 22.44 28 23 C27.32 23.57 26.64 24.14 25.94 24.73 C24 26 24 26 20.75 25.69 C19.84 25.46 18.94 25.23 18 25 C18 25.66 18 26.32 18 27 C13.38 27.33 8.76 27.66 4 28 C3.67 26.68 3.34 25.36 3 24 C3.66 23.01 4.32 22.02 5 21 C-0.28 21 -5.56 21 -11 21 C-11 20.34 -11 19.68 -11 19 C-12.65 19 -14.3 19 -16 19 C-16.33 18.34 -16.66 17.68 -17 17 C-15.53 13.26 -15.53 13.26 -13 12 C-13 11.34 -13 10.68 -13 10 C-13.99 9.67 -14.98 9.34 -16 9 C-16 8.67 -16 8.34 -16 8 C-13.36 7.34 -10.72 6.68 -8 6 C-8.33 5.34 -8.66 4.68 -9 4 C-8.1 4.5 -8.1 4.5 -7.19 5 C-4.95 6.21 -4.95 6.21 -2 6 C-1.34 4.02 -0.68 2.04 0 0 Z " fill="#728C3F" transform="translate(112,66)"/>
<path d="M0 0 C1.65 0 3.3 0 5 0 C5 0.99 5 1.98 5 3 C5.63 3.06 6.26 3.12 6.91 3.18 C11.57 3.64 16.21 4.15 20.86 4.75 C24.36 5.16 27.87 5.43 31.39 5.72 C33.97 6 36.46 6.45 39 7 C39 6.34 39 5.68 39 5 C39.89 4.86 40.77 4.71 41.69 4.56 C45.3 3.95 48.87 3.26 52.44 2.44 C58.16 1.46 61 1.75 65.88 5 C67.26 5.99 68.64 6.98 70 8 C69.67 10.31 69.34 12.62 69 15 C63.08 17.54 58.3 18.52 51.88 18.44 C51.03 18.43 50.18 18.43 49.31 18.43 C39.03 18.21 29.02 16.16 19 14 C19 13.34 19 12.68 19 12 C17.91 11.98 16.81 11.96 15.69 11.94 C9.74 11.21 4.43 7.94 0 4 C0 2.68 0 1.36 0 0 Z " fill="#F9C66D" transform="translate(76,165)"/>
<path d="M0 0 C0 0.66 0 1.32 0 2 C0.61 2.04 1.23 2.07 1.86 2.11 C2.67 2.18 3.48 2.24 4.31 2.31 C5.11 2.37 5.91 2.43 6.74 2.49 C9.4 3.09 10.26 3.95 12 6 C12.56 6.47 13.11 6.95 13.69 7.44 C15 9 15 9 15 13 C14.34 13 13.68 13 13 13 C13 14.65 13 16.3 13 18 C11.36 18.46 11.36 18.46 9.69 18.94 C7.45 19.58 5.21 20.26 3 21 C1.65 21.02 0.29 21 -1.06 20.94 C-5.01 20.54 -5.01 20.54 -7 23 C-9.21 23.38 -9.21 23.38 -11.81 23.56 C-14.62 23.79 -17.23 24.05 -20 24.62 C-22 25 -22 25 -24 24 C-23.67 22.35 -23.34 20.7 -23 19 C-20.36 19.33 -17.72 19.66 -15 20 C-15.33 19.34 -15.66 18.68 -16 18 C-18.53 17.34 -18.53 17.34 -21 17 C-20.34 15.68 -19.68 14.36 -19 13 C-18.34 13 -17.68 13 -17 13 C-16.83 12.3 -16.67 11.6 -16.5 10.88 C-13.55 5.22 -6.29 0 0 0 Z " fill="#BDD753" transform="translate(132,140)"/>
<path d="M0 0 C0.56 0.52 1.11 1.03 1.69 1.56 C1.69 2.22 1.69 2.88 1.69 3.56 C3.01 4.22 4.33 4.88 5.69 5.56 C5.03 8.86 4.37 12.16 3.69 15.56 C7.25 17.34 11.38 17 15.31 17.19 C16.19 17.24 17.07 17.29 17.97 17.34 C26.32 17.77 34.16 16.94 42.19 14.5 C45.25 13.68 47.56 13.37 50.69 13.56 C47.29 15.66 44.63 15.74 40.69 15.56 C40.69 16.22 40.69 16.88 40.69 17.56 C41.35 17.89 42.01 18.22 42.69 18.56 C40.7 18.76 38.72 18.95 36.73 19.15 C34.39 19.49 34.39 19.49 31.69 21.56 C29.43 21.76 29.43 21.76 27 21.69 C26.19 21.67 25.38 21.65 24.55 21.63 C23.94 21.61 23.32 21.59 22.69 21.56 C22.69 22.22 22.69 22.88 22.69 23.56 C11.15 22.9 0.03 21.96 -11.31 19.56 C-10.98 18.57 -10.65 17.58 -10.31 16.56 C-8.99 17.22 -7.67 17.88 -6.31 18.56 C-6.31 17.9 -6.31 17.24 -6.31 16.56 C-6.97 16.23 -7.63 15.9 -8.31 15.56 C-6.33 15.56 -4.35 15.56 -2.31 15.56 C-3.27 12 -3.97 10.78 -7.12 8.75 C-10.16 7.62 -12.12 7.28 -15.31 7.56 C-15.97 6.24 -16.63 4.92 -17.31 3.56 C-16.65 3.56 -15.99 3.56 -15.31 3.56 C-15.31 1.91 -15.31 0.26 -15.31 -1.44 C-4.87 -3.03 -4.87 -3.03 0 0 Z " fill="#BE9B50" transform="translate(92.3125,148.4375)"/>
<path d="M0 0 C2 2 2 2 2.36 4.4 C1.9 7.75 0.86 8.54 -1.75 10.62 C-2.45 11.19 -3.14 11.76 -3.86 12.35 C-4.57 12.9 -5.27 13.44 -6 14 C-6.68 14.57 -7.36 15.14 -8.06 15.73 C-10 17 -10 17 -13.25 16.69 C-14.61 16.35 -14.61 16.35 -16 16 C-16 16.66 -16 17.32 -16 18 C-20.62 18.33 -25.24 18.66 -30 19 C-30.33 17.68 -30.66 16.36 -31 15 C-30.34 14.01 -29.68 13.02 -29 12 C-30.32 11.67 -31.64 11.34 -33 11 C-33 10.34 -33 9.68 -33 9 C-31.05 8.85 -31.05 8.85 -29.06 8.69 C-21.34 7.81 -15.34 5.53 -9 1 C-5.76 -0.08 -3.4 -0.22 0 0 Z " fill="#E44F44" transform="translate(146,75)"/>
<path d="M0 0 C2.75 2.56 2.75 2.56 5 5 C4.01 5.66 3.02 6.32 2 7 C1.67 7.85 1.34 8.69 1 9.56 C0.67 10.37 0.34 11.17 0 12 C-0.99 12.33 -1.98 12.66 -3 13 C-2.34 13.33 -1.68 13.66 -1 14 C-1.19 15.88 -1.19 15.88 -2 18 C-4.56 19.25 -4.56 19.25 -7 20 C-7 20.66 -7 21.32 -7 22 C-9.97 22 -12.94 22 -16 22 C-16 21.34 -16 20.68 -16 20 C-17.32 20 -18.64 20 -20 20 C-20 18.68 -20 17.36 -20 16 C-20.66 15.67 -21.32 15.34 -22 15 C-19.03 14.34 -16.06 13.68 -13 13 C-13.33 12.67 -13.66 12.34 -14 12 C-15.68 12.29 -17.34 12.62 -19 13 C-19.39 12.38 -19.78 11.76 -20.19 11.12 C-22.28 8.68 -23.97 7.98 -27 7 C-27 6.67 -27 6.34 -27 6 C-26.35 5.91 -25.69 5.83 -25.02 5.74 C-18.34 4.71 -12.73 2.81 -6.63 -0.07 C-3.78 -1.08 -2.73 -1.2 0 0 Z M-2 1 C-5.78 4.48 -5.78 4.48 -8 9 C-9.98 9 -11.96 9 -14 9 C-14 9.33 -14 9.66 -14 10 C-12.23 10.08 -10.46 10.14 -8.69 10.19 C-7.7 10.22 -6.72 10.26 -5.7 10.29 C-2.98 10.23 -2.98 10.23 -1.14 8.61 C0.19 7.06 0.19 7.06 0 5 C0.66 4.67 1.32 4.34 2 4 C0.68 3.01 -0.64 2.02 -2 1 Z " fill="#C17B3D" transform="translate(95,73)"/>
<path d="M0 0 C5.94 1.49 5.94 1.49 12 3 C12 3.66 12 4.32 12 5 C13.22 5.12 14.43 5.25 15.69 5.38 C18.41 5.67 21.09 6.02 23.79 6.51 C30.68 7.77 37.39 8.21 44.38 8.25 C45.64 8.26 45.64 8.26 46.93 8.28 C51.98 8.25 56.27 7.82 61 6 C62.52 3.5 62.52 3.5 63 1 C63.33 1 63.66 1 64 1 C64.35 5.87 64.54 9.8 62.5 14.31 C57.25 19.96 50.63 23.71 42.79 24.11 C40.86 24.12 38.93 24.07 37 24 C37 23.34 37 22.68 37 22 C38.98 22.33 40.96 22.66 43 23 C42.5 21.51 42.5 21.51 42 20 C44.97 20 47.94 20 51 20 C50.5 16.53 50.5 16.53 50 13 C51.32 13 52.64 13 54 13 C54 12.34 54 11.68 54 11 C53.3 11.01 52.59 11.01 51.86 11.02 C48.62 11.04 45.37 11.05 42.12 11.06 C41.02 11.07 39.91 11.08 38.77 11.09 C20.74 11.14 20.74 11.14 13 7 C10.25 6.75 10.25 6.75 8 7 C7.67 6.34 7.34 5.68 7 5 C6.01 4.69 5.02 4.38 4 4.06 C3.01 3.71 2.02 3.36 1 3 C0.67 2.01 0.34 1.02 0 0 Z " fill="#E78E36" transform="translate(83,174)"/>
<path d="M0 0 C0.33 0 0.66 0 1 0 C1.77 3.92 1.71 5.92 -0.51 9.3 C-7.2 17.04 -16.49 25.87 -26 30 C-25.01 31.65 -24.02 33.3 -23 35 C-24.58 35.2 -26.17 35.38 -27.75 35.56 C-29.07 35.72 -29.07 35.72 -30.42 35.88 C-33 36 -33 36 -34.95 35.38 C-38.11 34.8 -40.18 36.08 -43.06 37.38 C-51.57 41.14 -51.57 41.14 -56.19 41.06 C-57.45 41.04 -58.7 41.02 -60 41 C-60.33 40.34 -60.66 39.68 -61 39 C-60.14 38.82 -59.29 38.64 -58.4 38.45 C-57.26 38.2 -56.12 37.95 -54.94 37.69 C-53.81 37.44 -52.69 37.2 -51.53 36.95 C-33.3 32.04 -11.25 19.13 -1 3 C-0.67 2.01 -0.34 1.02 0 0 Z " fill="#EC9B4F" transform="translate(128,38)"/>
<path d="M0 0 C0.56 0.52 1.11 1.03 1.69 1.56 C1.69 2.22 1.69 2.88 1.69 3.56 C3.01 4.22 4.33 4.88 5.69 5.56 C5.03 8.86 4.37 12.16 3.69 15.56 C0.81 15.31 0.81 15.31 -2.31 14.56 C-3.01 13.25 -3.68 11.91 -4.31 10.56 C-8.09 8.21 -10.86 7.17 -15.31 7.56 C-15.97 6.24 -16.63 4.92 -17.31 3.56 C-16.65 3.56 -15.99 3.56 -15.31 3.56 C-15.31 1.91 -15.31 0.26 -15.31 -1.44 C-4.87 -3.03 -4.87 -3.03 0 0 Z " fill="#BAD552" transform="translate(92.3125,148.4375)"/>
<path d="M0 0 C0 1.32 0 2.64 0 4 C-1.98 4.33 -3.96 4.66 -6 5 C-6 4.34 -6 3.68 -6 3 C-7.65 3.33 -9.3 3.66 -11 4 C-11 5.65 -11 7.3 -11 9 C-12.65 9 -14.3 9 -16 9 C-16 11.31 -16 13.62 -16 16 C-15.26 15.65 -14.52 15.3 -13.75 14.94 C-10.75 13.91 -9.89 13.92 -7 15 C-5.79 15.43 -5.79 15.43 -4.56 15.88 C-1.83 17.08 0.6 18.21 3 20 C3 21.32 3 22.64 3 24 C1.68 24.33 0.36 24.66 -1 25 C-1 25.66 -1 26.32 -1 27 C-3.97 26.67 -6.94 26.34 -10 26 C-10 25.34 -10 24.68 -10 24 C-10.66 24 -11.32 24 -12 24 C-12.27 23.03 -12.54 22.06 -12.81 21.06 C-13.2 20.05 -13.6 19.04 -14 18 C-14.99 17.67 -15.98 17.34 -17 17 C-19 14 -19 14 -18.88 11.12 C-17.86 7.5 -16.65 5.65 -14 3 C-11.44 1.75 -11.44 1.75 -9 1 C-5.8 -0.07 -3.34 -0.07 0 0 Z " fill="#939229" transform="translate(87,140)"/>
<path d="M0 0 C16.32 1.32 16.32 1.32 21 6 C21.12 8.62 21.12 8.62 21 11 C18 12 16.83 12.01 13.81 11.56 C12.55 11.38 11.3 11.19 10 11 C10 11.99 10 12.98 10 14 C8 13 8 13 6.88 9.94 C6.59 8.97 6.3 8 6 7 C5.22 6.92 4.43 6.83 3.62 6.75 C1 6 1 6 -0.38 4.06 C-1 2 -1 2 0 0 Z " fill="#A12C1F" transform="translate(112,66)"/>
<path d="M0 0 C9.42 1.82 9.42 1.82 14 3.06 C18.6 4.26 23.27 4.63 28 5 C26.02 5.99 26.02 5.99 24 7 C28.95 7 33.9 7 39 7 C36.36 6.67 33.72 6.34 31 6 C31 5.67 31 5.34 31 5 C38.92 4.5 38.92 4.5 47 4 C47 5.32 47 6.64 47 8 C42.66 10.17 36.82 9.18 32.06 9.19 C30.28 9.21 30.28 9.21 28.47 9.22 C10.75 9.25 10.75 9.25 3 5 C3.66 4.67 4.32 4.34 5 4 C5 3.34 5 2.68 5 2 C3.35 1.67 1.7 1.34 0 1 C0 0.67 0 0.34 0 0 Z " fill="#89220E" transform="translate(81,109)"/>
<path d="M0 0 C0 3 0 3 -1.53 4.61 C-2.18 5.13 -2.83 5.65 -3.5 6.19 C-4.15 6.72 -4.8 7.25 -5.47 7.79 C-5.97 8.19 -6.48 8.59 -7 9 C-5.02 8.67 -3.04 8.34 -1 8 C-4.5 11.67 -7.11 13.23 -12.19 13.62 C-13.09 13.7 -13.99 13.77 -14.92 13.85 C-15.61 13.9 -16.29 13.95 -17 14 C-17 13.34 -17 12.68 -17 12 C-16.34 11.67 -15.68 11.34 -15 11 C-14.81 10.1 -14.81 10.1 -14.62 9.19 C-13.8 6.3 -12.2 4.98 -10 3 C-13.3 2.67 -16.6 2.34 -20 2 C-20 1.67 -20 1.34 -20 1 C-10.1 0.5 -10.1 0.5 0 0 Z " fill="#CB8F46" transform="translate(126,117)"/>
<path d="M0 0 C0 0.66 0 1.32 0 2 C0.8 2.12 1.61 2.25 2.44 2.38 C3.71 2.68 3.71 2.68 5 3 C5.5 3.99 5.5 3.99 6 5 C4.42 5.2 2.83 5.38 1.25 5.56 C0.37 5.67 -0.51 5.77 -1.42 5.88 C-4 6 -4 6 -5.95 5.38 C-9.11 4.8 -11.18 6.08 -14.06 7.38 C-22.57 11.14 -22.57 11.14 -27.19 11.06 C-29.07 11.03 -29.07 11.03 -31 11 C-31.33 10.34 -31.66 9.68 -32 9 C-31.14 8.82 -30.29 8.64 -29.4 8.45 C-18.94 6.17 -18.94 6.17 -9.5 1.31 C-6.23 -0.41 -3.64 -0.21 0 0 Z " fill="#F2A456" transform="translate(99,68)"/>
<path d="M0 0 C-1.27 1.46 -2.54 2.93 -3.81 4.39 C-5.21 6.11 -5.21 6.11 -6 9 C-5.01 9.33 -4.02 9.66 -3 10 C-4.98 10 -6.96 10 -9 10 C-9.66 8.68 -10.32 7.36 -11 6 C-11.82 6.11 -11.82 6.11 -12.66 6.22 C-20.46 7.13 -28.16 7.09 -36 7 C-36 6.34 -36 5.68 -36 5 C-34.68 4.67 -33.36 4.34 -32 4 C-32 3.34 -32 2.68 -32 2 C-30 3 -30 3 -29 4 C-21.42 4.88 -15.07 3.39 -7.95 0.88 C-5.11 0.03 -2.93 -0.17 0 0 Z " fill="#CC913E" transform="translate(117,119)"/>
<path d="M0 0 C1.07 0.17 2.15 0.33 3.25 0.5 C6 1 6 1 7 2 C9.01 1.71 11.01 1.38 13 1 C4.33 8.23 -8.29 7.66 -19 7 C-19.66 6.67 -20.32 6.34 -21 6 C-21 4.68 -21 3.36 -21 2 C-19.35 1.67 -17.7 1.34 -16 1 C-16.33 2.32 -16.66 3.64 -17 5 C-12.74 5.41 -12.74 5.41 -9.12 3.5 C-8.75 3 -8.38 2.51 -8 2 C-8.66 1.34 -9.32 0.68 -10 0 C-6.26 -0.96 -3.74 -0.91 0 0 Z M-2 3 C2 4 2 4 2 4 Z " fill="#E77B3F" transform="translate(151,121)"/>
<path d="M0 0 C-0.19 1.88 -0.19 1.88 -1 4 C-3.56 5.25 -3.56 5.25 -6 6 C-6 6.66 -6 7.32 -6 8 C-8.97 8 -11.94 8 -15 8 C-15 7.34 -15 6.68 -15 6 C-16.32 6 -17.64 6 -19 6 C-19 4.68 -19 3.36 -19 2 C-16.23 0.61 -13.71 0.66 -10.62 0.44 C-8.91 0.31 -8.91 0.31 -7.16 0.18 C-4.78 0.05 -2.39 0 0 0 Z " fill="#A3C65D" transform="translate(94,87)"/>
<path d="M0 0 C0.66 0.33 1.32 0.66 2 1 C1.67 2.32 1.34 3.64 1 5 C1.93 5.46 1.93 5.46 2.88 5.94 C4.25 6.62 5.62 7.31 7 8 C7 8.66 7 9.32 7 10 C5.68 9.67 4.36 9.34 3 9 C2.67 9.66 2.34 10.32 2 11 C1.34 11 0.68 11 0 11 C-0.33 11.66 -0.66 12.32 -1 13 C-0.2 13.27 0.61 13.54 1.44 13.81 C2.28 14.2 3.13 14.6 4 15 C4.33 15.99 4.66 16.98 5 18 C6.33 18.35 7.66 18.69 9 19 C10.75 20.56 10.75 20.56 12 22 C11.67 22.66 11.34 23.32 11 24 C7 24 7 24 5 23 C5 22.34 5 21.68 5 21 C4.34 21 3.68 21 3 21 C-0.82 16.44 -3 13.14 -3 7 C-2.22 4.48 -1.21 2.37 0 0 Z " fill="#EF8D3B" transform="translate(75,164)"/>
<path d="M0 0 C5.76 0.36 10.75 1.9 15 6 C15 7.32 15 8.64 15 10 C7.5 10.37 7.5 10.37 5.31 8.75 C4.88 8.17 4.45 7.59 4 7 C2.34 5.65 0.68 4.32 -1 3 C-0.67 2.01 -0.34 1.02 0 0 Z " fill="#46831F" transform="translate(75,154)"/>
<path d="M0 0 C-3.63 0.66 -7.26 1.32 -11 2 C-11 2.66 -11 3.32 -11 4 C-10.11 4.27 -9.23 4.54 -8.31 4.81 C-0.92 7.46 -0.92 7.46 1.31 11.19 C1.54 11.79 1.77 12.38 2 13 C0.68 12.67 -0.64 12.34 -2 12 C-2 11.34 -2 10.68 -2 10 C-2.72 9.88 -3.43 9.76 -4.17 9.63 C-7.05 8.99 -9.59 8.06 -12.31 6.94 C-13.64 6.39 -13.64 6.39 -14.99 5.84 C-15.65 5.56 -16.32 5.29 -17 5 C-16.67 3.68 -16.34 2.36 -16 1 C-14.09 0.44 -12.17 -0.1 -10.25 -0.62 C-9.18 -0.93 -8.12 -1.23 -7.02 -1.54 C-4 -2 -4 -2 0 0 Z " fill="#EB9C36" transform="translate(83,127)"/>
<path d="M0 0 C0.99 0.33 1.98 0.66 3 1 C2.87 3.33 2.87 3.33 2 6 C-8.4 12.07 -23.47 15.07 -35.35 12.49 C-35.9 12.33 -36.44 12.17 -37 12 C-37 11.34 -37 10.68 -37 10 C-35.84 10.03 -34.68 10.07 -33.48 10.11 C-21.34 10.36 -10.45 9.89 0 3 C0 2.01 0 1.02 0 0 Z " fill="#A23F5A" transform="translate(167,117)"/>
<path d="M0 0 C0.66 0.33 1.32 0.66 2 1 C-3.95 6.79 -10.19 11.94 -18 15 C-18.99 14.67 -19.98 14.34 -21 14 C-20.43 13.52 -19.87 13.04 -19.29 12.54 C-18.18 11.59 -18.18 11.59 -17.06 10.62 C-16.33 10 -15.6 9.37 -14.85 8.73 C-12.92 7.12 -12.92 7.12 -12 5 C-10.19 4.24 -8.35 3.57 -6.5 2.94 C-2.97 1.95 -2.97 1.95 0 0 Z " fill="#E9AC66" transform="translate(139,112)"/>
<path d="M0 0 C0.99 0 1.98 0 3 0 C3 0.66 3 1.32 3 2 C4.65 1.67 6.3 1.34 8 1 C8 1.66 8 2.32 8 3 C9.14 2.75 9.14 2.75 10.31 2.5 C15.22 1.83 20.05 1.92 25 2 C25.66 3.32 26.32 4.64 27 6 C25.02 6.99 25.02 6.99 23 8 C23.66 6.68 24.32 5.36 25 4 C15.33 4.58 5.66 5.22 -4 6 C-2.85 3.53 -1.95 1.95 0 0 Z M2 2 C1.67 2.66 1.34 3.32 1 4 C1.66 4 2.32 4 3 4 C2.67 3.34 2.34 2.68 2 2 Z " fill="#E78C7B" transform="translate(141,114)"/>
<path d="M0 0 C-3.4 2.09 -6.05 2.18 -10 2 C-10 2.66 -10 3.32 -10 4 C-9.34 4.33 -8.68 4.66 -8 5 C-11.86 6.09 -14.93 5.77 -18.86 5.19 C-21.02 5 -22.85 5.14 -25 5.44 C-31.95 6.39 -39 6.08 -46 6 C-46 5.34 -46 4.68 -46 4 C-47.67 4.06 -47.67 4.06 -49.38 4.12 C-53 4 -53 4 -55 2 C-52.33 0.97 -51.2 0.93 -48.47 1.93 C-44 3.31 -39.78 3.5 -35.12 3.69 C-34.27 3.73 -33.41 3.78 -32.52 3.83 C-24.26 4.21 -16.44 3.35 -8.5 0.94 C-5.44 0.12 -3.13 -0.19 0 0 Z " fill="#9E9736" transform="translate(143,162)"/>
<path d="M0 0 C2.12 2.31 2.12 2.31 4 5 C6.62 6.33 6.62 6.33 9 7 C9 7.66 9 8.32 9 9 C3.29 11.07 -1.04 11 -7 10 C-5.79 9.1 -5.79 9.1 -4.56 8.19 C-1.78 6.19 -1.78 6.19 -1 3 C-3.97 2.5 -3.97 2.5 -7 2 C-7 1.67 -7 1.34 -7 1 C-3.75 0.19 -3.75 0.19 0 0 Z " fill="#823613" transform="translate(95,84)"/>
<path d="M0 0 C7.75 0.88 7.75 0.88 10 2 C10 2.66 10 3.32 10 4 C10.66 4.33 11.32 4.66 12 5 C11.01 5.33 10.02 5.66 9 6 C9.31 6.99 9.62 7.98 9.94 9 C10.39 11.86 10.14 12.79 8.51 15.25 C6.74 17.24 4.93 19.15 3 21 C1.68 20.67 0.36 20.34 -1 20 C0.18 19.32 0.18 19.32 1.38 18.62 C4.04 17.12 4.04 17.12 6 15 C6.42 11.54 6.42 11.54 6 8 C4.56 6.31 4.56 6.31 3 5 C3 3.68 3 2.36 3 1 C2.01 0.67 1.02 0.34 0 0 Z " fill="#9D872C" transform="translate(144,141)"/>
<path d="M0 0 C0.9 0.01 1.8 0.02 2.73 0.03 C3.42 0.04 4.1 0.05 4.81 0.06 C5.14 0.72 5.47 1.38 5.81 2.06 C6.8 2.72 7.79 3.38 8.81 4.06 C8.48 4.72 8.15 5.38 7.81 6.06 C4.51 6.06 1.21 6.06 -2.19 6.06 C-2.19 5.4 -2.19 4.74 -2.19 4.06 C-4.17 4.06 -6.15 4.06 -8.19 4.06 C-8.19 3.07 -8.19 2.08 -8.19 1.06 C-5.17 0.06 -3.15 -0.04 0 0 Z " fill="#7B8F2D" transform="translate(134.1875,135.9375)"/>
<path d="M0 0 C0.33 1.32 0.66 2.64 1 4 C0.34 4 -0.32 4 -1 4 C-1 5.65 -1 7.3 -1 9 C-5.33 10.3 -9.51 11.34 -14 12 C-13.5 11.57 -13.01 11.13 -12.5 10.69 C-10.67 9 -10.67 9 -11 6 C-11.99 5.67 -12.98 5.34 -14 5 C-10.21 3.74 -8.66 4.6 -5 6 C-4.34 6.33 -3.68 6.66 -3 7 C-3.33 5.68 -3.66 4.36 -4 3 C-2.68 2.67 -1.36 2.34 0 2 C0 1.34 0 0.68 0 0 Z " fill="#9CC53D" transform="translate(146,149)"/>
<path d="M0 0 C3.47 1.49 3.47 1.49 7 3 C7 3.66 7 4.32 7 5 C7.93 5.27 8.86 5.54 9.81 5.81 C12.76 6.91 14.15 7.53 16 10 C16 10.66 16 11.32 16 12 C13.03 11.67 10.06 11.34 7 11 C7 10.34 7 9.68 7 9 C6.34 9 5.68 9 5 9 C4.73 8.03 4.46 7.06 4.19 6.06 C3.8 5.05 3.4 4.04 3 3 C2.01 2.67 1.02 2.34 0 2 C0 1.34 0 0.68 0 0 Z " fill="#A68D3B" transform="translate(70,155)"/>
<path d="M0 0 C0.33 0 0.66 0 1 0 C1.69 9.66 1.69 9.66 -0.75 13.62 C-1.86 14.8 -1.86 14.8 -3 16 C-4.32 16 -5.64 16 -7 16 C-6.01 15.67 -5.02 15.34 -4 15 C-4.19 14.4 -4.37 13.8 -4.56 13.19 C-5 11 -5 11 -4 8 C-4.99 7.67 -5.98 7.34 -7 7 C-5.82 6.66 -5.82 6.66 -4.62 6.31 C-1.78 5.22 -1.78 5.22 -0.69 2.38 C-0.46 1.59 -0.23 0.81 0 0 Z " fill="#EA741F" transform="translate(146,175)"/>
<path d="M0 0 C3.78 1.34 6.66 3.03 9.81 5.5 C10.6 6.11 11.39 6.72 12.21 7.34 C12.8 7.89 13.39 8.44 14 9 C14 9.66 14 10.32 14 11 C14.54 11.21 15.07 11.41 15.62 11.62 C19 13.58 21.3 16.18 24 19 C25.32 17.68 26.64 16.36 28 15 C27.34 16.98 26.68 18.96 26 21 C22.81 20.42 21.14 19.52 18.83 17.27 C17.96 16.44 17.96 16.44 17.07 15.59 C16.47 15.01 15.87 14.42 15.25 13.81 C10.38 9.16 5.47 4.94 0 1 C0 0.67 0 0.34 0 0 Z " fill="#EDD751" transform="translate(83,137)"/>
<path d="M0 0 C0 1.32 0 2.64 0 4 C-0.99 4.5 -0.99 4.5 -2 5 C-1.67 5.99 -1.34 6.98 -1 8 C-6.75 7.25 -6.75 7.25 -9 5 C-11.57 4.35 -11.57 4.35 -14 4 C-11.37 2.24 -9.96 1.58 -7 0.88 C-6.32 0.71 -5.64 0.54 -4.94 0.37 C-3 0 -3 0 0 0 Z " fill="#F8C630" transform="translate(86,126)"/>
<path d="M0 0 C0.99 0.33 1.98 0.66 3 1 C3 1.66 3 2.32 3 3 C2.01 3 1.02 3 0 3 C0 3.66 0 4.32 0 5 C-5.94 6.1 -9.68 6.41 -15 3 C-15 2.67 -15 2.34 -15 2 C-13.06 1.8 -11.13 1.62 -9.19 1.44 C-8.11 1.33 -7.03 1.23 -5.92 1.12 C-3 1 -3 1 0 2 C0 1.34 0 0.68 0 0 Z " fill="#AE2E1F" transform="translate(83,77)"/>
<path d="M0 0 C1.65 0 3.3 0 5 0 C5 0.66 5 1.32 5 2 C5.8 2.12 6.61 2.25 7.44 2.38 C8.71 2.68 8.71 2.68 10 3 C10.33 3.66 10.66 4.32 11 5 C9.4 5.22 7.79 5.43 6.19 5.62 C5.29 5.74 4.4 5.86 3.48 5.98 C1 6 1 6 -2 4 C-1.34 2.68 -0.68 1.36 0 0 Z " fill="#B2D268" transform="translate(94,68)"/>
<path d="M0 0 C0 1.32 0 2.64 0 4 C1.32 4 2.64 4 4 4 C3.67 4.66 3.34 5.32 3 6 C2.01 5.67 1.02 5.34 0 5 C-0.33 6.65 -0.66 8.3 -1 10 C-1.66 9.67 -2.32 9.34 -3 9 C-2.67 8.34 -2.34 7.68 -2 7 C-3.32 6.67 -4.64 6.34 -6 6 C-6.33 7.32 -6.66 8.64 -7 10 C-7.31 7.25 -7.31 7.25 -7 4 C-3 0 -3 0 0 0 Z " fill="#9B3B1A" transform="translate(75,89)"/>
<path d="M0 0 C0.6 0.33 1.2 0.66 1.81 1 C4.05 2.21 4.05 2.21 7 2 C7.66 1.34 8.32 0.68 9 0 C11.31 1.65 13.62 3.3 16 5 C15.67 6.32 15.34 7.64 15 9 C14.34 9 13.68 9 13 9 C12.67 8.01 12.34 7.02 12 6 C8.7 5.67 5.4 5.34 2 5 C1.34 3.35 0.68 1.7 0 0 Z " fill="#8F974F" transform="translate(103,70)"/>
<path d="M0 0 C2.31 0.66 4.62 1.32 7 2 C7 4.31 7 6.62 7 9 C5.35 9 3.7 9 2 9 C2 9.66 2 10.32 2 11 C1.34 11 0.68 11 0 11 C-0.33 9.68 -0.66 8.36 -1 7 C-0.01 6.67 0.98 6.34 2 6 C1.34 4.02 0.68 2.04 0 0 Z " fill="#F06761" transform="translate(128,82)"/>
<path d="M0 0 C0.66 0 1.32 0 2 0 C2.33 0.66 2.66 1.32 3 2 C4.58 2.03 6.17 2.05 7.75 2.06 C8.63 2.07 9.51 2.09 10.42 2.1 C12.78 2.01 14.74 1.67 17 1 C17.33 1.66 17.66 2.32 18 3 C17.01 3.5 17.01 3.5 16 4 C16.66 4.66 17.32 5.32 18 6 C15.37 5.89 12.75 5.76 10.12 5.62 C9.38 5.59 8.63 5.56 7.86 5.53 C2.23 5.23 2.23 5.23 0 3 C0 2.01 0 1.02 0 0 Z " fill="#C88D10" transform="translate(91,127)"/>
<path d="M0 0 C4.95 0.33 9.9 0.66 15 1 C14 3 14 3 11.5 3.85 C9.98 4.23 9.98 4.23 8.44 4.62 C7.43 4.89 6.41 5.15 5.37 5.41 C4.59 5.61 3.81 5.8 3 6 C3 6.66 3 7.32 3 8 C1.35 7.67 -0.3 7.34 -2 7 C-1.34 6.38 -0.68 5.76 0 5.12 C2.23 3.24 2.23 3.24 2 1 C1.34 0.67 0.68 0.34 0 0 Z " fill="#E49243" transform="translate(131,129)"/>
<path d="M0 0 C1.32 0 2.64 0 4 0 C3.67 1.32 3.34 2.64 3 4 C2.01 3.67 1.02 3.34 0 3 C-0.33 4.32 -0.66 5.64 -1 7 C-1.99 6.67 -2.98 6.34 -4 6 C-4.12 6.64 -4.25 7.28 -4.38 7.94 C-4.58 8.62 -4.79 9.3 -5 10 C-5.99 10.5 -5.99 10.5 -7 11 C-7 9.68 -7 8.36 -7 7 C-8.32 6.67 -9.64 6.34 -11 6 C-9.31 4.38 -9.31 4.38 -7 3 C-4.25 3.81 -4.25 3.81 -2 5 C-1.34 3.35 -0.68 1.7 0 0 Z " fill="#C31E1C" transform="translate(141,77)"/>
<path d="M0 0 C0 0.66 0 1.32 0 2 C-0.66 2 -1.32 2 -2 2 C-2.31 2.62 -2.62 3.24 -2.94 3.88 C-3.62 5.25 -4.31 6.62 -5 8 C-6.32 8 -7.64 8 -9 8 C-9 7.34 -9 6.68 -9 6 C-8.01 6 -7.02 6 -6 6 C-6 5.34 -6 4.68 -6 4 C-7.98 4.33 -9.96 4.66 -12 5 C-12.33 4.34 -12.66 3.68 -13 3 C-4.57 -0.43 -4.57 -0.43 0 0 Z " fill="#DC5938" transform="translate(92,74)"/>
<path d="M0 0 C0.99 0.66 1.98 1.32 3 2 C-1.23 4.42 -4.12 5.35 -9 5 C-9 3.68 -9 2.36 -9 1 C-5.98 -0.51 -3.33 -0.18 0 0 Z " fill="#B6842D" transform="translate(143,122)"/>
<path d="M0 0 C2 1 2 1 3 2 C5.02 2.23 7.04 2.41 9.06 2.56 C10.17 2.65 11.27 2.73 12.41 2.82 C13.26 2.88 14.12 2.94 15 3 C11.26 5.45 7.56 5.23 3.25 5.12 C2.55 5.12 1.86 5.11 1.14 5.1 C-0.58 5.07 -2.29 5.04 -4 5 C-4 4.34 -4 3.68 -4 3 C-2.68 2.67 -1.36 2.34 0 2 C0 1.34 0 0.68 0 0 Z " fill="#D27E45" transform="translate(85,121)"/>
<path d="M0 0 C1.75 0.06 1.75 0.06 4 1 C7.18 5.51 8.55 8.36 8 14 C7.01 14 6.02 14 5 14 C5 14.66 5 15.32 5 16 C4.34 16 3.68 16 3 16 C3 15.01 3 14.02 3 13 C3.66 13 4.32 13 5 13 C4.45 9.05 3.61 5.65 2 2 C1.34 2 0.68 2 0 2 C0 1.34 0 0.68 0 0 Z " fill="#63A222" transform="translate(143,141)"/>
<path d="M0 0 C0.52 0.25 1.03 0.5 1.56 0.75 C-0.2 1.69 -1.95 2.64 -3.71 3.58 C-5.74 4.8 -5.74 4.8 -7.44 7.75 C-10.22 8.54 -12.54 8.75 -15.44 8.75 C-4.9 -0.5 -4.9 -0.5 0 0 Z " fill="#ED9153" transform="translate(91.4375,30.25)"/>
<path d="M0 0 C1.94 0.31 1.94 0.31 4 1 C5 4 5 4 4 7 C2.35 7.33 0.7 7.66 -1 8 C-1.93 5.39 -2.15 4.36 -1.06 1.75 C-0.71 1.17 -0.36 0.59 0 0 Z " fill="#C6322A" transform="translate(117,86)"/>
<path d="M0 0 C7.75 0.88 7.75 0.88 10 2 C10 2.66 10 3.32 10 4 C10.66 4.33 11.32 4.66 12 5 C8.62 5.84 6.33 6.11 3 5 C3 3.68 3 2.36 3 1 C2.01 0.67 1.02 0.34 0 0 Z " fill="#8C6123" transform="translate(144,141)"/>
<path d="M0 0 C5.57 0.48 10.67 1.3 16 3 C16 3.33 16 3.66 16 4 C11.71 4 7.42 4 3 4 C3.33 3.01 3.66 2.02 4 1 C3.01 1 2.02 1 1 1 C0.67 1.66 0.34 2.32 0 3 C0 2.01 0 1.02 0 0 Z " fill="#E45B46" transform="translate(112,66)"/>
<path d="M0 0 C0.66 0.33 1.32 0.66 2 1 C1.67 1.99 1.34 2.98 1 4 C7.93 4.5 7.93 4.5 15 5 C15 5.33 15 5.66 15 6 C12.37 6.03 9.75 6.05 7.12 6.06 C6.38 6.07 5.63 6.08 4.86 6.09 C-0.77 6.11 -0.77 6.11 -3 5 C-3 3.68 -3 2.36 -3 1 C-2.01 0.67 -1.02 0.34 0 0 Z " fill="#EAB7A4" transform="translate(133,122)"/>
<path d="M0 0 C1.21 0.03 1.21 0.03 2.44 0.06 C1.17 1.53 -0.1 2.99 -1.37 4.46 C-2.77 6.17 -2.77 6.17 -3.56 9.06 C-2.57 9.39 -1.58 9.72 -0.56 10.06 C-2.21 10.06 -3.86 10.06 -5.56 10.06 C-3.62 0.09 -3.62 0.09 0 0 Z " fill="#E7B585" transform="translate(114.5625,118.9375)"/>
<path d="M0 0 C0 1.98 0 3.96 0 6 C-0.99 6 -1.98 6 -3 6 C-3 5.34 -3 4.68 -3 4 C-4.32 4 -5.64 4 -7 4 C-7 2.68 -7 1.36 -7 0 C-4.33 -1.33 -2.83 -0.67 0 0 Z " fill="#C2DF78" transform="translate(82,89)"/>
<path d="M0 0 C2 0.75 2 0.75 5 2.75 C5 3.74 5 4.73 5 5.75 C1.04 5.18 -1.67 3.94 -5 1.75 C-2 -0.25 -2 -0.25 0 0 Z " fill="#F09043" transform="translate(90,188.25)"/>
<path d="M0 0 C1.98 2.97 2.66 4.51 3 8 C2.5 10.25 2.5 10.25 1 12 C-2.62 12.75 -2.62 12.75 -6 13 C-1.25 9 -1.25 9 1 9 C0.43 5.07 0.43 5.07 -2 2 C-1.34 2 -0.68 2 0 2 C0 1.34 0 0.68 0 0 Z " fill="#7C6A26" transform="translate(118,71)"/>
<path d="M0 0 C0.66 0.33 1.32 0.66 2 1 C-3.12 5.18 -7.48 5.74 -14 6 C-14 5.34 -14 4.68 -14 4 C-13.11 3.82 -13.11 3.82 -12.21 3.63 C-8.69 2.89 -5.4 2.16 -2.06 0.81 C-1.38 0.54 -0.7 0.28 0 0 Z " fill="#954341" transform="translate(123,125)"/>
<path d="M0 0 C0.99 0.01 1.99 0.02 3.01 0.03 C4.15 0.04 4.15 0.04 5.31 0.06 C4.65 0.72 3.99 1.38 3.31 2.06 C1.99 2.06 0.67 2.06 -0.69 2.06 C-1.02 2.72 -1.35 3.38 -1.69 4.06 C-4 3.73 -6.31 3.4 -8.69 3.06 C-8.69 2.4 -8.69 1.74 -8.69 1.06 C-5.54 0.01 -3.3 -0.04 0 0 Z " fill="#E9884E" transform="translate(121.6875,82.9375)"/>
<path d="M0 0 C0.33 1.32 0.66 2.64 1 4 C-2.4 6.09 -5.05 6.18 -9 6 C-6.12 3.6 -3.44 1.53 0 0 Z " fill="#E5A247" transform="translate(129,123)"/>
<path d="M0 0 C-10.37 4.59 -10.37 4.59 -16 4 C-13.58 1.58 -11.84 1.21 -8.56 0.31 C-7.11 -0.1 -7.11 -0.1 -5.63 -0.51 C-3 -1 -3 -1 0 0 Z " fill="#F19F9B" transform="translate(164,123)"/>
<path d="M0 0 C0.33 1.32 0.66 2.64 1 4 C-1.31 5.98 -3.62 7.96 -6 10 C-6.66 9.34 -7.32 8.68 -8 8 C-6.5 6.8 -5.01 5.59 -3.51 4.39 C-1.75 2.88 -1.75 2.88 0 0 Z " fill="#D84330" transform="translate(146,79)"/>
<path d="M0 0 C0.81 0.19 1.62 0.39 2.45 0.59 C3.06 0.75 3.68 0.9 4.31 1.06 C-0.17 3.62 -3.77 3.15 -8.69 2.06 C-6.72 -1.86 -3.64 -0.9 0 0 Z " fill="#5D710F" transform="translate(133.6875,136.9375)"/>
<path d="M0 0 C3.69 0.5 5.6 1.1 8 4 C6.02 4.66 4.04 5.32 2 6 C1.34 4.02 0.68 2.04 0 0 Z " fill="#F4B165" transform="translate(134,167)"/>
<path d="M0 0 C0.66 0.33 1.32 0.66 2 1 C-1.96 4.47 -1.96 4.47 -6 8 C-6.66 7.67 -7.32 7.34 -8 7 C-8 6.01 -8 5.02 -8 4 C-6.71 3.3 -5.42 2.62 -4.12 1.94 C-3.41 1.55 -2.69 1.17 -1.95 0.78 C-1.3 0.52 -0.66 0.26 0 0 Z " fill="#EDA29D" transform="translate(139,112)"/>
<path d="M0 0 C0.99 0 1.98 0 3 0 C3.33 1.98 3.66 3.96 4 6 C3.01 6 2.02 6 1 6 C1 6.99 1 7.98 1 9 C0.34 8.67 -0.32 8.34 -1 8 C-1.12 2.25 -1.12 2.25 0 0 Z " fill="#BD5F42" transform="translate(121,71)"/>
<path d="M0 0 C1.98 0 3.96 0 6 0 C6 1.32 6 2.64 6 4 C4.02 4.33 2.04 4.66 0 5 C0 3.35 0 1.7 0 0 Z " fill="#668E1B" transform="translate(81,140)"/>
<path d="M0 0 C-4.18 1.59 -7.53 2.21 -12 2 C-12.33 1.34 -12.66 0.68 -13 0 C-11.59 -0.39 -10.17 -0.76 -8.75 -1.12 C-7.96 -1.33 -7.17 -1.54 -6.36 -1.76 C-3.58 -2.04 -2.34 -1.45 0 0 Z " fill="#B31917" transform="translate(130,94)"/>
<path d="M0 0 C0.6 0.33 1.2 0.66 1.81 1 C4.05 2.21 4.05 2.21 7 2 C7.66 1.34 8.32 0.68 9 0 C10.32 1.32 11.64 2.64 13 4 C11.4 4.11 9.79 4.19 8.19 4.25 C7.29 4.3 6.4 4.34 5.48 4.39 C3 4 3 4 1.18 1.98 C0.79 1.33 0.4 0.67 0 0 Z " fill="#CC8148" transform="translate(103,70)"/>
<path d="M0 0 C0.33 0.66 0.66 1.32 1 2 C-2.21 3.61 -5.44 3.06 -9 3 C-6.39 -0.48 -4.17 -0.28 0 0 Z " fill="#E3AF42" transform="translate(149,124)"/>
<path d="M0 0 C0 3 0 3 -1.46 4.61 C-2.09 5.13 -2.72 5.65 -3.38 6.19 C-4 6.72 -4.63 7.25 -5.27 7.79 C-7 9 -7 9 -9 9 C-8.67 8.01 -8.34 7.02 -8 6 C-7.34 6 -6.68 6 -6 6 C-6 5.34 -6 4.68 -6 4 C-4.04 2.61 -2.04 1.27 0 0 Z " fill="#BB8311" transform="translate(126,117)"/>
<path d="M0 0 C-0.33 0.99 -0.66 1.98 -1 3 C-1.99 2.67 -2.98 2.34 -4 2 C-4 2.66 -4 3.32 -4 4 C-6.31 3.34 -8.62 2.68 -11 2 C-11 1.67 -11 1.34 -11 1 C-3.38 0 -3.38 0 0 0 Z " fill="#DC5937" transform="translate(79,78)"/>
<path d="M0 0 C0.99 0.33 1.98 0.66 3 1 C2.67 2.65 2.34 4.3 2 6 C0.68 6.33 -0.64 6.66 -2 7 C-2.33 6.34 -2.66 5.68 -3 5 C-2.01 4.34 -1.02 3.68 0 3 C0 2.01 0 1.02 0 0 Z " fill="#D36165" transform="translate(167,117)"/>
<path d="M0 0 C3.38 1.19 5.65 2.28 8 5 C7.67 5.66 7.34 6.32 7 7 C6.34 6.67 5.68 6.34 5 6 C4.67 6.66 4.34 7.32 4 8 C3.67 6.35 3.34 4.7 3 3 C2.01 2.67 1.02 2.34 0 2 C0 1.34 0 0.68 0 0 Z " fill="#B24322" transform="translate(135,92)"/>
<path d="M0 0 C0.99 0 1.98 0 3 0 C2.25 1.94 2.25 1.94 1 4 C-1.12 4.75 -1.12 4.75 -3 5 C-3 4.34 -3 3.68 -3 3 C-3.66 2.67 -4.32 2.34 -5 2 C-3.35 2 -1.7 2 0 2 C0 1.34 0 0.68 0 0 Z " fill="#C1E478" transform="translate(91,88)"/>
<path d="M0 0 C0.99 0.33 1.98 0.66 3 1 C3 1.66 3 2.32 3 3 C3.66 3.33 4.32 3.66 5 4 C2.12 4.12 2.12 4.12 -1 4 C-1.66 3.34 -2.32 2.68 -3 2 C-2.01 1.34 -1.02 0.68 0 0 Z " fill="#ADD152" transform="translate(101,159)"/>
<path d="M0 0 C1.65 0 3.3 0 5 0 C5 0.66 5 1.32 5 2 C2.69 2.66 0.38 3.32 -2 4 C-1.34 2.68 -0.68 1.36 0 0 Z " fill="#D4BE5D" transform="translate(94,68)"/>
<path d="" fill="#FF5555" transform="translate(0,0)"/>
<path d="" fill="#ED6D37" transform="translate(0,0)"/>
<path d="" fill="#FF5555" transform="translate(0,0)"/>
</svg>
